# xmcd CD database file
#
# Track frame offsets:
#	150
#	13303
#	33440
#	44048
#	60003
#	67113
#	81138
#	101243
#	109983
#	129643
#	144148
#	158693
#	180200
#	201538
#	220305
#	241195
#	262538
#	272245
#	287958
#
# Disc length: 4030 seconds
#
# Revision: 1
# Processed by: cddbd v1.5.1PL0 Copyright (c) Steve Scherf et al.
# Submitted via: CDex 1.51
#
DISCID=160fbc13
DTITLE=藤原真理 - 風の想い出
DYEAR=1996
DGENRE=Other
TTITLE0=バッハの組曲／オーケストラのための童話「セロ弾きのゴーシュ」より
TTITLE1=鳥の歌
TTITLE2=空と太陽と海
TTITLE3=モア
TTITLE4=甘き春に
TTITLE5=風の伝説
TTITLE6=はるかな地へ
TTITLE7=レクイエム
TTITLE8=遠い日々
TTITLE9=谷への道
TTITLE10=イマジン
TTITLE11=「裸の島」の主題によるパラフレーズ
TTITLE12=ギリシャの海
TTITLE13=ダンス・ウィズ・ウルヴズ
TTITLE14=ウォーキング・イン・ジ・エア
TTITLE15=風のとおり道
TTITLE16=ウォーター・マーク
TTITLE17=フラジャイル
TTITLE18=星めぐりの歌
EXTD=YEAR: 1996
EXTT0=
EXTT1=
EXTT2=
EXTT3=
EXTT4=
EXTT5=
EXTT6=
EXTT7=
EXTT8=
EXTT9=
EXTT10=
EXTT11=
EXTT12=
EXTT13=
EXTT14=
EXTT15=
EXTT16=
EXTT17=
EXTT18=
PLAYORDER=
